simulation
nRows=36
nColumns=15
endheader
time  TH_x TH_y TH_z SC_y  SC_z  SC_x  AC_y  AC_z  AC_x  GH_y  GH_z  GH_yy  EL_x  PS_y
0.000000  0.000000  0.000000  0.000000  -30.813392  -0.339563  15.000000  53.397865  -6.129210  -15.103846  42.446688  -0.496460  -14.445645  22.668474  122.008067
0.031313  0.000000  0.000000  0.000000  -30.821578  -0.410264  15.000000  53.365414  -6.015408  -15.180700  42.459058  -0.693701  -14.365526  22.758091  122.037272
0.062626  0.000000  0.000000  0.000000  -30.813221  -0.487892  15.000000  53.292524  -5.923162  -15.247679  42.507639  -0.827774  -14.311133  22.774083  122.043410
0.093939  0.000000  0.000000  0.000000  -30.797152  -0.569499  15.000000  53.193940  -5.853825  -15.306740  42.562620  -0.872850  -14.284615  22.727262  122.034656
0.125253  0.000000  0.000000  0.000000  -30.782201  -0.652135  15.000000  53.084391  -5.808729  -15.359883  42.594193  -0.803100  -14.288119  22.628440  122.019190
0.156566  0.000000  0.000000  0.000000  -30.777199  -0.732851  15.000000  52.978586  -5.789204  -15.409145  42.572550  -0.592694  -14.323794  22.488427  122.005188
0.187879  0.000000  0.000000  0.000000  -30.790978  -0.808697  15.000000  52.891223  -5.796587  -15.456586  42.467881  -0.215805  -14.393789  22.318036  122.000828
0.219192  0.000000  0.000000  0.000000  -30.832347  -0.876729  15.000000  52.836959  -5.832217  -15.504253  42.250474  0.353326  -14.500279  22.128073  122.014235
0.250505  0.000000  0.000000  0.000000  -30.904412  -0.935125  15.000000  52.821382  -5.889598  -15.554623  41.920008  1.118714  -14.654172  21.927595  122.037270
0.281818  0.000000  0.000000  0.000000  -30.996509  -0.984775  15.000000  52.828269  -5.943253  -15.611284  41.547057  2.031937  -14.887429  21.721444  122.022576
0.313131  0.000000  0.000000  0.000000  -31.095938  -1.026969  15.000000  52.838221  -5.964860  -15.678028  41.212666  3.036826  -15.235122  21.513843  121.917000
0.344444  0.000000  0.000000  0.000000  -31.190553  -1.063179  15.000000  52.834232  -5.929679  -15.754111  40.972678  4.081307  -15.713587  21.311130  121.688931
0.375758  0.000000  0.000000  0.000000  -31.272854  -1.096394  15.000000  52.819343  -5.843570  -15.799968  40.669792  5.147957  -16.180686  21.137587  121.488957
0.407071  0.000000  0.000000  0.000000  -31.337677  -1.130371  15.000000  52.806642  -5.727790  -15.756502  40.039534  6.236769  -16.414600  21.026514  121.559278
0.438384  0.000000  0.000000  0.000000  -31.379913  -1.168769  15.000000  52.809210  -5.603524  -15.565323  38.820494  7.348090  -16.195920  21.010745  122.138667
0.469697  0.000000  0.000000  0.000000  -31.396332  -1.209487  15.000000  52.835451  -5.482406  -15.214262  36.965882  8.494210  -15.472031  21.093610  123.237892
0.501010  0.000000  0.000000  0.000000  -31.386530  -1.241773  15.000000  52.886716  -5.361758  -14.760587  34.751518  9.705380  -14.441051  21.234087  124.524977
0.532323  0.000000  0.000000  0.000000  -31.350339  -1.254163  15.000000  52.963807  -5.237746  -14.267254  32.479833  11.013330  -13.321773  21.387492  125.639675
0.563636  0.000000  0.000000  0.000000  -31.289910  -1.236422  15.000000  53.066099  -5.103624  -13.790715  30.422985  12.440522  -12.315792  21.514822  126.291700
0.594949  0.000000  0.000000  0.000000  -31.218829  -1.184380  15.000000  53.185680  -4.938013  -13.355823  28.704114  13.963769  -11.540030  21.605008  126.535111
0.626263  0.000000  0.000000  0.000000  -31.154191  -1.095728  15.000000  53.312170  -4.714897  -12.977956  27.400587  15.545870  -11.085400  21.655567  126.529739
0.657576  0.000000  0.000000  0.000000  -31.112444  -0.968519  15.000000  53.435696  -4.409646  -12.671869  26.582739  17.151675  -11.036574  21.664387  126.432179
0.688889  0.000000  0.000000  0.000000  -31.096278  -0.808459  15.000000  53.565486  -4.030681  -12.433213  26.171766  18.789755  -11.345782  21.637209  126.329701
0.720202  0.000000  0.000000  0.000000  -31.095226  -0.628569  15.000000  53.729657  -3.618058  -12.239212  25.946288  20.510480  -11.838638  21.587287  126.243302
0.751515  0.000000  0.000000  0.000000  -31.098297  -0.442160  15.000000  53.957720  -3.212997  -12.066328  25.679276  22.365864  -12.335733  21.528167  126.191316
0.782828  0.000000  0.000000  0.000000  -31.097477  -0.259813  15.000000  54.266086  -2.837460  -11.895579  25.220372  24.375339  -12.713090  21.468124  126.182329
0.814141  0.000000  0.000000  0.000000  -31.093506  -0.084069  15.000000  54.630672  -2.456766  -11.721924  24.644731  26.462483  -13.009783  21.399916  126.196251
0.845455  0.000000  0.000000  0.000000  -31.088723  0.083997  15.000000  55.019447  -2.025828  -11.543142  24.068765  28.533342  -13.294718  21.313465  126.207745
0.876768  0.000000  0.000000  0.000000  -31.085194  0.243310  15.000000  55.401844  -1.503322  -11.357174  23.599412  30.499977  -13.630793  21.199415  126.193658
0.908081  0.000000  0.000000  0.000000  -31.082009  0.392758  15.000000  55.769157  -0.889413  -11.159210  23.242143  32.338876  -14.016571  21.056169  126.154228
0.939394  0.000000  0.000000  0.000000  -31.076456  0.531207  15.000000  56.126236  -0.209429  -10.942611  22.940882  34.065608  -14.411589  20.886837  126.103875
0.970707  0.000000  0.000000  0.000000  -31.065834  0.657543  15.000000  56.478149  0.511221  -10.700922  22.639308  35.696180  -14.775425  20.694565  126.056975
1.002020  0.000000  0.000000  0.000000  -31.050802  0.772587  15.000000  56.815791  1.265699  -10.448372  22.339930  37.236159  -15.123473  20.479663  126.004441
1.033333  0.000000  0.000000  0.000000  -31.038097  0.880657  15.000000  57.104350  2.079976  -10.235728  22.151718  38.672218  -15.572128  20.237304  125.894732
1.064646  0.000000  0.000000  0.000000  -31.035098  0.986441  15.000000  57.307152  2.982402  -10.116263  22.194852  39.989038  -16.248421  19.962126  125.671837
1.095960  0.000000  0.000000  0.000000  -31.047984  1.094640  15.000000  57.399116  3.993533  -10.124823  22.551972  41.177963  -17.239248  19.652705  125.297956
